<?xml version="1.0" encoding="UTF-8" standalone="no"?>
<!DOCTYPE svg PUBLIC "-//W3C//DTD SVG 1.1//EN" "http://www.w3.org/Graphics/SVG/1.1/DTD/svg11.dtd">
<svg width="100%" height="100%" viewBox="0 0 140 200" version="1.1" xmlns="http://www.w3.org/2000/svg" xmlns:xlink="http://www.w3.org/1999/xlink" xml:space="preserve" xmlns:serif="http://www.serif.com/" style="fill-rule:evenodd;clip-rule:evenodd;stroke-linejoin:round;stroke-miterlimit:2;">
    <g transform="matrix(1,0,0,1,-545.467576,-47.845208)">
        <g transform="matrix(1,0,0,1,598.910429,0)">
            <g transform="matrix(1.107315,0,0,1.107315,-137.011006,176.884049)">
                <circle cx="84.5" cy="18.583" r="9.031" style="fill:rgb(132,2,2);"/>
            </g>
        </g>
        <g transform="matrix(1,0,0,1,598.910429,0)">
            <g transform="matrix(1.107315,0,0,1.107315,-137.011006,136.884049)">
                <circle cx="84.5" cy="18.583" r="9.031" style="fill:rgb(132,2,2);"/>
            </g>
        </g>
        <g transform="matrix(1,0,0,1,598.910429,0)">
            <g transform="matrix(1.107315,0,0,1.107315,-127.011006,66.884049)">
                <circle cx="84.5" cy="18.583" r="9.031" style="fill:rgb(132,2,2);"/>
            </g>
        </g>
        <g transform="matrix(1,0,0,1,598.910429,0)">
            <g transform="matrix(1.107315,0,0,1.107315,-77.011006,37.267773)">
                <circle cx="84.5" cy="18.583" r="9.031" style="fill:rgb(132,2,2);"/>
            </g>
        </g>
        <g transform="matrix(1,0,0,1,598.910429,0)">
            <g transform="matrix(1.107315,0,0,1.107315,-77.011006,216.884049)">
                <circle cx="84.5" cy="18.583" r="9.031" style="fill:rgb(132,2,2);"/>
            </g>
        </g>
        <g transform="matrix(1,0,0,1,598.910429,0)">
            <g transform="matrix(1.107315,0,0,1.107315,-107.011006,116.884049)">
                <circle cx="84.5" cy="18.583" r="9.031" style="fill:rgb(132,2,2);"/>
            </g>
        </g>
        <g transform="matrix(1,0,0,1,598.910429,0)">
            <g transform="matrix(1.107315,0,0,1.107315,-107.011006,196.884049)">
                <circle cx="84.5" cy="18.583" r="9.031" style="fill:rgb(132,2,2);"/>
            </g>
        </g>
        <g transform="matrix(1,0,0,1,598.910429,0)">
            <g transform="matrix(-1.107315,0,0,1.107315,170.1253,176.884049)">
                <circle cx="84.5" cy="18.583" r="9.031" style="fill:rgb(132,2,2);"/>
            </g>
        </g>
        <g transform="matrix(1,0,0,1,598.910429,0)">
            <g transform="matrix(-1.107315,0,0,1.107315,170.1253,136.884049)">
                <circle cx="84.5" cy="18.583" r="9.031" style="fill:rgb(132,2,2);"/>
            </g>
        </g>
        <g transform="matrix(1,0,0,1,598.910429,0)">
            <g transform="matrix(-1.107315,0,0,1.107315,160.1253,66.884049)">
                <circle cx="84.5" cy="18.583" r="9.031" style="fill:rgb(132,2,2);"/>
            </g>
        </g>
        <g transform="matrix(1,0,0,1,598.910429,0)">
            <g transform="matrix(-1.107315,0,0,1.107315,140.1253,116.884049)">
                <circle cx="84.5" cy="18.583" r="9.031" style="fill:rgb(132,2,2);"/>
            </g>
        </g>
        <g transform="matrix(1,0,0,1,598.910429,0)">
            <g transform="matrix(-1.107315,0,0,1.107315,140.1253,196.884049)">
                <circle cx="84.5" cy="18.583" r="9.031" style="fill:rgb(132,2,2);"/>
            </g>
        </g>
        <g transform="matrix(1,0,0,1,598.910429,0)">
            <g transform="matrix(1,0,0,1,-580.590767,0)">
                <rect x="587.148" y="57.845" width="20" height="179.616" style="fill:rgb(132,2,2);"/>
            </g>
        </g>
        <g transform="matrix(1,0,0,1,598.910429,0)">
            <g transform="matrix(1,0,0,1,-580.590767,0)">
                <rect x="547.148" y="77.461" width="100" height="20" style="fill:rgb(132,2,2);"/>
            </g>
        </g>
        <g transform="matrix(1,0,0,1,598.910429,0)">
            <g transform="matrix(1,0,0,1,-580.590767,0)">
                <rect x="557.148" y="137.461" width="20" height="80" style="fill:rgb(132,2,2);"/>
            </g>
        </g>
        <g transform="matrix(1,0,0,1,598.910429,0)">
            <g transform="matrix(1,0,0,1,-580.590767,0)">
                <rect x="527.148" y="157.461" width="20" height="40" style="fill:rgb(132,2,2);"/>
            </g>
        </g>
        <g transform="matrix(1,0,0,1,598.910429,0)">
            <g transform="matrix(1,0,0,1,-580.590767,0)">
                <rect x="617.148" y="137.461" width="20" height="80" style="fill:rgb(132,2,2);"/>
            </g>
        </g>
        <g transform="matrix(1,0,0,1,598.910429,0)">
            <g transform="matrix(0.984827,0,0,1,-570.771902,0)">
                <rect x="647.148" y="157.461" width="20.308" height="40" style="fill:rgb(132,2,2);"/>
            </g>
        </g>
    </g>
</svg>
